<svg xmlns="http://www.w3.org/2000/svg" version="1.1" xmlns:xlink="http://www.w3.org/1999/xlink" xmlns:svgjs="http://svgjs.dev/svgjs" width="2000" height="1500" viewBox="0 0 2000 1500"><rect width="2000" height="1500" fill="#7a26c1"></rect><g transform="matrix(0.4444444444444444,0,0,0.4444444444444444,555.5567250000001,250)"><svg viewBox="0 0 320 360" data-background-color="#7a26c1" preserveAspectRatio="xMidYMid meet" height="2250" width="2000" xmlns="http://www.w3.org/2000/svg" xmlns:xlink="http://www.w3.org/1999/xlink"><g id="tight-bounds" transform="matrix(1,0,0,1,-0.00042100000007394556,0)"><svg viewBox="0 0 320 360" height="360" width="320"><g><svg></svg></g><g><svg viewBox="0 0 320 360" height="360" width="320"><g><path transform="translate(-9.31575,10.66434) scale(0.39811,0.39811)" d="M827.2 486c-0.2-21.2-13.6-38-13.8-59.2-0.1-21.2 13.1-46.8 12.9-68-6.7-20.1-24.7-31.9-31.4-52-6.7-20.1-2.1-48.6-8.7-68.7-12.6-17.1-33.4-22.7-45.9-39.7-12.6-17.1-17-45.6-29.5-62.6-17.2-12.3-38.7-11.3-56-23.6-17.2-12.3-30.2-38.1-47.5-50.4-20.2-6.4-40.3 1.3-60.5-5.2-20.2-6.4-40.5-26.9-60.7-33.3-21.2 0.2-38 13.6-59.2 13.8-21.2 0.1-46.8-13.1-68-12.9-20.1 6.7-31.9 24.7-52 31.4-20.1 6.7-48.6 2.1-68.7 8.8-17.1 12.6-22.7 33.4-39.7 45.9-17.1 12.6-45.6 17-62.6 29.6-12.3 17.2-11.3 38.7-23.6 56-12.3 17.2-38.1 30.2-50.4 47.5-6.4 20.2 1.2 40.3-5.2 60.5-6.4 20.2-26.9 40.5-33.3 60.7 0.1 21.2 13.6 38 13.8 59.2 0.1 21.2-13.1 46.8-12.9 68 6.7 20.1 24.7 31.9 31.4 52 6.7 20.1 2.1 48.6 8.8 68.7 12.6 17.1 33.4 22.7 45.9 39.8 12.6 17.1 17 45.6 29.5 62.6 17.2 12.3 38.7 11.3 56 23.6 17.2 12.3 30.2 38.1 47.5 50.4 20.2 6.4 40.3-1.2 60.5 5.2 20.2 6.4 40.5 26.9 60.7 33.3 21.2-0.2 38-13.6 59.2-13.8 21.2-0.1 46.8 13.1 68 12.9 20.1-6.7 31.9-24.7 52-31.4 20.1-6.7 48.6-2.1 68.7-8.8 17.1-12.6 22.7-33.4 39.8-45.9 17.1-12.6 45.6-17 62.6-29.5 12.3-17.2 11.3-38.7 23.6-56 12.3-17.2 38.1-30.2 50.4-47.5 6.4-20.2-1.2-40.3 5.2-60.5 6.2-20.4 26.7-40.7 33.1-60.9zM792 544.4c-9.1 17.9-31.4 33.8-40.6 51.7-9.1 17.9-5.1 37.9-14.2 55.8-14.2 14.2-40.3 22.4-54.6 36.6-14.2 14.2-16.5 34.5-30.8 48.7-17.9 9.1-45.3 8.8-63.2 18-17.9 9.1-26.4 27.7-44.3 36.8-19.9 3.1-45.8-5.6-65.7-2.5-19.9 3.1-33.7 18.2-53.5 21.3-19.9-3.1-41.8-19.5-61.7-22.6-19.9-3.2-37.6 6.9-57.5 3.7-17.9-9.1-33.8-31.5-51.7-40.6-17.9-9.1-37.9-5.1-55.9-14.2-14.2-14.2-22.4-40.3-36.6-54.6-14.2-14.2-34.5-16.6-48.7-30.8-9.1-17.9-8.8-45.3-18-63.2-9.1-17.9-27.7-26.4-36.8-44.3-3.1-19.9 5.6-45.8 2.5-65.7-3.2-19.9-18.2-33.7-21.3-53.5 3.2-19.9 19.5-41.8 22.6-61.7 3.1-19.9-6.9-37.6-3.7-57.5 9.1-17.9 31.5-33.8 40.6-51.7 9.1-17.9 5.1-37.9 14.2-55.9 14.2-14.2 40.3-22.4 54.6-36.6 14.2-14.2 16.6-34.5 30.8-48.7 17.9-9.1 45.3-8.8 63.2-18 17.9-9.1 26.4-27.7 44.3-36.8 19.9-3.1 45.8 5.6 65.7 2.5 19.9-3.1 33.7-18.2 53.5-21.3 19.9 3.1 41.8 19.5 61.7 22.6 19.9 3.2 37.6-6.9 57.5-3.7 17.9 9.1 33.8 31.5 51.7 40.6 17.9 9.1 37.9 5.1 55.9 14.2 14.2 14.2 22.4 40.3 36.6 54.6 14.2 14.2 34.5 16.6 48.7 30.8 9.1 17.9 8.8 45.3 18 63.2 9.1 17.9 27.7 26.4 36.8 44.3 3.2 19.9-5.6 45.8-2.5 65.7 3.1 19.9 18.2 33.7 21.3 53.5-3.1 19.9-19.5 41.8-22.6 61.7-3.1 19.9 6.9 37.7 3.7 57.6z" fill="#7a26c1" fill-rule="nonzero" stroke="none" stroke-width="1" stroke-linecap="butt" stroke-linejoin="miter" stroke-miterlimit="10" stroke-dasharray="" stroke-dashoffset="0" font-family="none" font-weight="none" font-size="none" text-anchor="none" style="mix-blend-mode: normal" data-fill-palette-color="tertiary"></path></g><g transform="matrix(1,0,0,1,48,99.53083390007097)"><svg viewBox="0 0 224 160.93833219985805" height="160.93833219985805" width="224"><g><svg viewBox="0 0 224 160.93833219985805" height="160.93833219985805" width="224"><g transform="matrix(1,0,0,1,0,97.11074268219906)"><svg viewBox="0 0 224 63.827589517658986" height="63.827589517658986" width="224"><g id="textblocktransform"><svg viewBox="0 0 224 63.827589517658986" height="63.827589517658986" width="224" id="textblock"><g><svg viewBox="0 0 224 37.70401891252955" height="37.70401891252955" width="224"><g transform="matrix(1,0,0,1,0,0)"><svg width="224" viewBox="2.2 -35.99 258.16 43.46" height="37.70401891252955" data-palette-color="#ffffff"><path d="M31.69-4.49L31.69 0 2.22 0 2.22-4.49 2.2-4.49 20.58-30.66 2.22-30.66 2.22-35.16 31.69-35.16 31.69-30.66 13.31-4.49 31.69-4.49ZM71.34-16.82L71.34-16.82 71.34-16.36Q71.29-14.31 70.91-12.11 70.53-9.91 69.85-7.71 69.16-5.52 68.21-3.37 67.26-1.22 66.07 0.74 64.89 2.71 63.52 4.43 62.16 6.15 60.64 7.47L60.64 7.47 57 5.37Q57.86 3.93 58.55 2.23 59.25 0.54 59.81-1.32 60.37-3.17 60.78-5.13 61.18-7.08 61.45-9.01 61.72-10.94 61.85-12.81 61.98-14.67 61.98-16.36L61.98-16.36Q61.98-17.68 61.97-19.35 61.96-21.02 61.78-22.75 61.59-24.49 61.18-26.14 60.76-27.78 59.95-29.08 59.13-30.37 57.85-31.15 56.56-31.93 54.66-31.93L54.66-31.93Q52.98-31.93 51.77-31.36 50.56-30.79 49.72-29.82 48.87-28.86 48.37-27.59 47.87-26.32 47.59-24.91 47.31-23.51 47.23-22.08 47.14-20.65 47.14-19.38L47.14-19.38 47.14-12.57 57.66-12.57 57.66-8.54 47.14-8.54 47.14 0 37.45 0 37.45-17.87Q37.45-21.7 38.67-25 39.89-28.3 42.12-30.73 44.36-33.15 47.5-34.53 50.63-35.91 54.49-35.91L54.49-35.91Q57.1-35.91 59.38-35.17 61.67-34.42 63.55-33.12 65.43-31.81 66.9-30.02 68.38-28.22 69.37-26.1 70.36-23.97 70.87-21.61 71.38-19.24 71.34-16.82ZM87.32-13.75L87.32 0 77.63 0 77.63-35.16 87.32-35.16 87.32-18.41Q91.82-21.85 95.71-26.05 99.6-30.25 102.41-35.18L102.41-35.18 109.03-35.18Q106.44-30.76 103.1-26.93 99.75-23.1 95.82-19.82L95.82-19.82 109.86 0 99.75 0 89.18-14.94Q88.72-14.62 88.26-14.33 87.81-14.04 87.32-13.75L87.32-13.75ZM144.38-26.44L144.38-26.44 140.2-24.68Q139.71-26.27 138.9-27.59 138.08-28.91 136.94-29.85 135.81-30.79 134.37-31.31 132.93-31.84 131.22-31.84L131.22-31.84Q129.39-31.84 127.86-31.24 126.34-30.64 125.13-29.59 123.92-28.54 123.01-27.15 122.11-25.76 121.5-24.18 120.89-22.61 120.6-20.92 120.31-19.24 120.31-17.63L120.31-17.63Q120.31-15.06 120.9-12.52 121.5-9.99 122.81-7.96 124.11-5.93 126.19-4.68 128.26-3.42 131.22-3.42L131.22-3.42Q132.78-3.42 134.17-3.94 135.56-4.47 136.7-5.38 137.83-6.3 138.69-7.54 139.54-8.79 140.06-10.23L140.06-10.23 144.28-8.54Q143.35-6.23 141.74-4.48 140.13-2.73 138.07-1.59 136-0.44 133.65 0.13 131.29 0.71 128.9 0.71L128.9 0.71Q126.31 0.71 123.93 0.07 121.55-0.56 119.5-1.73 117.45-2.91 115.78-4.57 114.1-6.23 112.92-8.25 111.74-10.28 111.09-12.66 110.44-15.04 110.44-17.63L110.44-17.63Q110.44-20.21 111.09-22.6 111.74-24.98 112.92-27.01 114.1-29.05 115.78-30.71 117.45-32.37 119.5-33.54 121.55-34.72 123.93-35.35 126.31-35.99 128.9-35.99L128.9-35.99Q131.39-35.99 133.77-35.4 136.15-34.81 138.2-33.63 140.25-32.45 141.85-30.65 143.45-28.86 144.38-26.44ZM186.73-17.63L186.73-17.63Q186.73-13.38 185.27-9.97 183.8-6.57 181.22-4.2 178.63-1.83 175.09-0.56 171.55 0.71 167.42 0.71L167.42 0.71Q163.3 0.71 159.76-0.56 156.22-1.83 153.63-4.2 151.04-6.57 149.57-9.97 148.11-13.38 148.11-17.63L148.11-17.63Q148.11-21.95 149.56-25.35 151.02-28.76 153.59-31.12 156.17-33.47 159.71-34.73 163.25-35.99 167.42-35.99L167.42-35.99Q171.6-35.99 175.14-34.73 178.68-33.47 181.25-31.12 183.83-28.76 185.28-25.35 186.73-21.95 186.73-17.63ZM176.87-17.63L176.87-17.63Q176.87-19.24 176.72-20.92 176.58-22.61 176.19-24.19 175.8-25.78 175.12-27.17 174.45-28.56 173.4-29.6 172.35-30.64 170.88-31.24 169.4-31.84 167.42-31.84L167.42-31.84Q165.42-31.84 163.93-31.24 162.44-30.64 161.39-29.61 160.34-28.59 159.68-27.2 159.02-25.81 158.64-24.23 158.27-22.66 158.12-20.96 157.97-19.26 157.97-17.63L157.97-17.63Q157.97-16.02 158.12-14.33 158.27-12.65 158.66-11.07 159.05-9.5 159.72-8.11 160.39-6.71 161.44-5.68 162.49-4.64 163.97-4.03 165.44-3.42 167.42-3.42L167.42-3.42Q169.35-3.42 170.79-4.04 172.23-4.66 173.28-5.73 174.33-6.79 175.03-8.19 175.72-9.59 176.13-11.17 176.53-12.74 176.7-14.4 176.87-16.06 176.87-17.63ZM202.45-13.13L202.45 0 192.76 0 192.76-35.16 210.05-35.16Q212.49-35.16 214.76-34.58 217.03-34.01 218.77-32.78 220.52-31.54 221.56-29.59 222.59-27.64 222.59-24.85L222.59-24.85Q222.59-22.68 221.68-20.76 220.76-18.85 219.24-17.35 217.71-15.84 215.73-14.86 213.76-13.87 211.63-13.55L211.63-13.55Q212.59-11.94 213.62-10.5 214.66-9.06 215.72-7.8 216.78-6.54 217.83-5.48 218.88-4.42 219.84-3.54L219.84-3.54Q222.08-1.49 224.28 0L224.28 0 212.19 0Q210.73-1.39 209.41-3.34L209.41-3.34Q208.29-5 207.15-7.46 206.02-9.91 205.41-13.13L205.41-13.13 202.45-13.13ZM212.76-24.85L212.76-24.85Q212.76-28.39 211.03-30.05 209.31-31.71 205.87-31.71L205.87-31.71 202.45-31.71 202.45-16.46 205.87-16.46Q207.7-16.46 209.01-17.15 210.31-17.85 211.14-19.01 211.97-20.17 212.37-21.68 212.76-23.19 212.76-24.85ZM238.53-13.13L238.53 0 228.84 0 228.84-35.16 247.84-35.16Q250.3-35.16 252.56-34.5 254.82-33.84 256.55-32.51 258.29-31.18 259.32-29.16 260.36-27.15 260.36-24.44L260.36-24.44Q260.36-22.73 259.87-21.23 259.38-19.73 258.52-18.48 257.65-17.24 256.48-16.24 255.31-15.23 253.92-14.55 252.52-13.87 250.97-13.5 249.42-13.13 247.84-13.13L247.84-13.13 238.53-13.13ZM250.55-24.44L250.55-24.44Q250.55-27.83 248.83-29.77 247.1-31.71 243.64-31.71L243.64-31.71 238.53-31.71 238.53-16.46 243.64-16.46Q245.49-16.46 246.8-17.05 248.11-17.65 248.94-18.73 249.77-19.8 250.16-21.25 250.55-22.71 250.55-24.44Z" opacity="1" transform="matrix(1,0,0,1,0,0)" fill="#ffffff" class="wordmark-text-0" data-fill-palette-color="primary" id="text-0"></path></svg></g></svg></g><g transform="matrix(1,0,0,1,42.784000000000006,46.60503288132387)"><svg viewBox="0 0 138.432 17.22255663633511" height="17.22255663633511" width="138.432"><g transform="matrix(1,0,0,1,0,0)"><svg width="138.432" viewBox="-8.3 -38.65 318.67 39.65" height="17.22255663633511" data-palette-color="#ffffff"><path d="M11.7-12.25L11.7-12.25 11.7-13.55 3.2-31.75Q1.25-35.95-1.05-37L-1.05-37Q-1.95-37-3.25-36.35-4.55-35.7-4.85-35.05L-4.85-35.05-5.15-34.95Q-6.5-35.85-8.15-36.35L-8.15-36.35Q-8.3-36.65-8.3-37.18-8.3-37.7-7.48-38.18-6.65-38.65-5.15-38.65L-5.15-38.65Q-2-38.65 2.27-36.9 6.55-35.15 8.2-33.3L8.2-33.3Q9.25-28.8 10.53-25.58 11.8-22.35 14.55-16.85L14.55-16.85Q20.1-27.7 20.1-30.45L20.1-30.45Q20.1-31.55 19.1-32.05L19.1-32.05 19.3-32.75Q21.8-32.55 24.58-32.55 27.35-32.55 29.95-32.95L29.95-32.95 30.2-31.7Q27.8-30.95 25.35-30.65L25.35-30.65 15.55-14.9Q15.55-6.55 16.2-1.75L16.2-1.75Q18.85-1.5 21.7-0.8L21.7-0.8 21.55 0.4Q17.85 0 13.53 0 9.2 0 6.55 0.4L6.55 0.4 6.35-0.85Q8.6-1.55 11.15-1.9L11.15-1.9Q11.7-6 11.7-12.25ZM40.4 0.6Q35.45 0.6 32.4-2.53 29.35-5.65 29.35-10.9 29.35-16.15 32.55-20.75 35.75-25.35 40.9-26.65L40.9-26.65Q46.05-26.65 48.75-23.73 51.45-20.8 51.45-15.4 51.45-10 48.52-5.65 45.6-1.3 40.4 0.6L40.4 0.6ZM39.55-23.6L39.55-23.6Q37.3-23.6 35.65-22.35L35.65-22.35Q33.6-18.85 33.6-13.55L33.6-13.55Q33.6-7.45 37-4.2L37-4.2Q38.8-2.45 41.25-2.45 43.7-2.45 45.2-3.75L45.2-3.75Q47.2-7.25 47.2-12.3 47.2-17.35 45.4-20.48 43.6-23.6 39.55-23.6ZM76.59-14.2L76.59-14.2 76.59-11.85Q76.59-5 77.09-1.6L77.09-1.6Q79.4-1.3 80.9-0.9L80.9-0.9 80.75 0.35Q78.3 0 75.72 0 73.15 0 72.2 0.15L72.2 0.15 72-0.5Q72.45-1 72.59-3.35L72.59-3.35Q70-0.65 66.59 0.6L66.59 0.6Q58 0.6 58-9.65L58-9.65Q58-11.9 58.34-16.85 58.7-21.8 58.7-22.65 58.7-23.5 58.4-24.3L58.4-24.3 58.4-24.35Q56.3-24.7 55.05-25.1L55.05-25.1 55.25-26.45Q58.15-26.05 60.5-26.05 62.84-26.05 64.34-26.3L64.34-26.3 64.55-25.45Q62.75-24.5 62.45-22L62.45-22Q61.84-17.2 61.84-12.15 61.84-7.1 63.02-4.98 64.2-2.85 67.42-2.85 70.65-2.85 72.65-4.7L72.65-4.7Q72.84-8.7 72.84-14.15 72.84-19.6 72.45-24.4L72.45-24.4Q70.2-24.65 68.3-25.15L68.3-25.15 68.45-26.4Q71.05-26.05 74.27-26.05 77.5-26.05 80.05-26.45L80.05-26.45 80.25-25.15Q78.84-24.7 77.09-24.4L77.09-24.4Q76.59-21.05 76.59-14.2ZM84.59-24.95L84.59-25.95 96.09-26.3Q100.59-26.3 102.84-24.98 105.09-23.65 105.09-20.15L105.09-20.15Q105.09-17.75 103.62-15.9 102.14-14.05 99.74-13.15L99.74-13.15 105.34-1.7Q107.04-1.4 108.54-1L108.54-1 108.34 0.35Q106.24 0 103.62 0 100.99 0 99.49 0.25L99.49 0.25 99.29-0.55Q99.94-1.2 99.94-2.7L99.94-2.7Q99.94-5.75 96.44-12.5L96.44-12.5Q95.39-12.7 93.99-12.7L93.99-12.7 94.09-14.15 94.59-14.15Q100.49-14.15 100.49-19.55L100.49-19.55Q100.49-24.55 95.44-24.55L95.44-24.55Q93.74-24.55 92.39-24L92.39-24Q92.04-20.7 92.04-12.7 92.04-4.7 92.49-1.65L92.49-1.65Q94.69-1.4 96.59-0.9L96.59-0.9 96.44 0.35Q93.84 0 90.62 0 87.39 0 84.84 0.4L84.84 0.4 84.64-0.9Q86.04-1.35 87.79-1.65L87.79-1.65Q88.29-5.4 88.29-13.33 88.29-21.25 87.84-24.3L87.84-24.3Q85.89-24.95 84.59-24.95L84.59-24.95ZM124.04-33.3Q127.49-33.15 131.96-32.7 136.44-32.25 138.34-32.25 140.24-32.25 141.19-32.55L141.19-32.55Q143.49-34.75 144.44-35.9L144.44-35.9 145.24-35.3Q142.59-31.85 142.04-28.1L142.04-28.1Q137.09-29.45 132.99-29.75L132.99-29.75Q132.64-24.3 132.64-15.43 132.64-6.55 133.29-1.75L133.29-1.75Q135.79-1.5 138.79-0.8L138.79-0.8 138.64 0.4Q134.94 0 130.61 0 126.29 0 123.64 0.4L123.64 0.4 123.44-0.85Q125.69-1.55 128.24-1.9L128.24-1.9Q128.79-6 128.79-14.8L128.79-14.8 128.79-17.75Q128.79-22.7 128.19-29.9L128.19-29.9 126.89-29.9Q120.99-29.9 119.34-28.3L119.34-28.3Q118.99-27.6 118.99-26.1 118.99-24.6 119.49-24.05L119.49-24.05 119.44-23.7Q118.19-22.95 116.94-21.6L116.94-21.6Q116.34-21.65 115.96-22.1 115.59-22.55 115.59-23.15L115.59-23.15Q115.59-25.6 118.54-29 121.49-32.4 124.04-33.3L124.04-33.3ZM150.24-12.35Q150.38-7.9 151.88-5.4 153.38-2.9 156.99-2.9 160.59-2.9 163.63-5.95L163.63-5.95 164.34-5.25Q160.99-1 156.28 0.6L156.28 0.6Q151.44 0.6 148.69-2.48 145.94-5.55 145.94-10.78 145.94-16 149.19-20.6 152.44-25.2 157.49-26.65L157.49-26.65Q161.13-26.65 165.74-25.9L165.74-25.9 165.69-24.8Q164.74-24.8 163.88-24.45L163.88-24.45Q162.94-22.2 162.63-19.1L162.63-19.1 161.38-19.1Q160.99-20.8 160.99-22.6L160.99-22.6Q159.09-23.55 156.49-23.55 153.88-23.55 152.19-22.15L152.19-22.15Q150.49-19.05 150.24-14.75L150.24-14.75Q152.34-14.4 154.74-14.4L154.74-14.4Q158.88-14.4 159.74-16.15L159.74-16.15 160.78-16Q160.34-14.5 160.34-13.05 160.34-11.6 160.69-9.5L160.69-9.5 159.49-9.3Q158.94-10.8 158.69-12.4L158.69-12.4Q156.69-12.6 154.71-12.6 152.74-12.6 150.24-12.35L150.24-12.35ZM179.53-2.9L179.53-2.9Q182.98-2.9 186.03-5.95L186.03-5.95 186.73-5.25Q183.38-1 178.68 0.6L178.68 0.6Q173.83 0.6 171.08-2.48 168.33-5.55 168.33-10.78 168.33-16 171.58-20.6 174.83-25.2 179.88-26.65L179.88-26.65Q183.53-26.65 188.13-25.9L188.13-25.9 188.08-24.8Q187.13-24.8 186.28-24.45L186.28-24.45Q185.33-22.2 185.03-19.1L185.03-19.1 183.78-19.1Q183.38-20.8 183.38-22.6L183.38-22.6Q181.48-23.55 178.88-23.55 176.28-23.55 174.58-22.15L174.58-22.15Q172.63-18.6 172.63-13.55L172.63-13.55Q172.63-5.7 175.98-3.7L175.98-3.7Q177.43-2.9 179.53-2.9ZM205.53-25.15L205.73-26.45Q208.28-26.05 211.51-26.05 214.73-26.05 217.33-26.4L217.33-26.4 217.48-25.15Q215.58-24.65 213.33-24.4L213.33-24.4Q212.83-21.3 212.83-14.2L212.83-14.2 212.83-11.85Q212.83-4.65 213.33-1.65L213.33-1.65Q215.58-1.4 217.48-0.9L217.48-0.9 217.33 0.35Q214.73 0 211.51 0 208.28 0 205.73 0.4L205.73 0.4 205.53-0.9Q206.93-1.35 208.68-1.65L208.68-1.65Q209.08-7.3 209.13-12.95L209.13-12.95Q205.93-13.25 203.23-13.25 200.53-13.25 197.38-12.95L197.38-12.95Q197.38-4.7 197.83-1.65L197.83-1.65Q200.08-1.4 201.98-0.9L201.98-0.9 201.83 0.35Q199.23 0 196.01 0 192.78 0 190.23 0.4L190.23 0.4 190.03-0.9Q191.43-1.35 193.18-1.65L193.18-1.65Q193.63-5.25 193.63-11.85L193.63-11.85 193.63-14.2Q193.63-20.8 193.13-24.4L193.13-24.4Q191.38-24.7 189.98-25.15L189.98-25.15 190.18-26.45Q192.73-26.05 195.96-26.05 199.18-26.05 201.78-26.4L201.78-26.4 201.93-25.15Q200.03-24.65 197.78-24.4L197.78-24.4Q197.38-21.5 197.38-15.45L197.38-15.45Q200.18-15.05 203.41-15.05 206.63-15.05 209.13-15.4L209.13-15.4Q209.08-19.65 208.68-24.4L208.68-24.4Q206.93-24.7 205.53-25.15L205.53-25.15ZM224.23-3.8Q226.53-2.85 228.78-2.85 231.03-2.85 232.38-3.9 233.73-4.95 233.73-6.9L233.73-6.9Q233.73-8.9 228.08-11.85L228.08-11.85Q225.93-12.95 224.15-14.53 222.38-16.1 222.38-17.65L222.38-17.65Q222.38-20.3 225.18-23 227.98-25.7 230.93-26.65L230.93-26.65Q234.63-26.65 237.63-25.9L237.63-25.9 237.63-25Q235.53-22.9 235.28-19.25L235.28-19.25 234.03-19.25Q234.03-20.65 233.78-22.75L233.78-22.75Q232.03-23.55 230.03-23.55 228.03-23.55 226.7-22.68 225.38-21.8 225.38-20.15L225.38-20.15Q225.38-19 227.15-17.65 228.93-16.3 231.03-15.25 233.13-14.2 234.9-12.65 236.68-11.1 236.68-9.55L236.68-9.55Q236.68-6.55 234.03-3.58 231.38-0.6 228.18 0.6L228.18 0.6Q225.03 0.6 222.28-0.15L222.28-0.15Q221.48 0.2 220.63 1L220.63 1 219.73 0.35Q222.53-2.7 222.83-7.2L222.83-7.2 224.08-7.2Q224.08-5.45 224.23-3.8L224.23-3.8ZM258.23-23.35L258.23-23.35Q256.48-24.2 254.88-24.2 253.28-24.2 252.73-24L252.73-24Q252.33-21.3 252.33-13.55 252.33-5.8 252.88-1.65L252.88-1.65Q255.13-1.4 257.03-0.9L257.03-0.9 256.88 0.35Q254.28 0 250.9 0 247.53 0 244.98 0.4L244.98 0.4 244.78-0.9Q245.78-1.2 248.23-1.65L248.23-1.65Q248.68-5.25 248.68-11.85L248.68-11.85 248.68-14.2Q248.68-17.7 248.13-24L248.13-24Q247.58-24.2 246.08-24.2 244.58-24.2 242.88-23.5L242.88-23.5Q242.38-21.95 242.18-19.35L242.18-19.35 240.88-19.35Q240.88-23.45 239.53-25.7L239.53-25.7 239.78-26.55Q243.63-26.05 250.58-26.05 257.53-26.05 261.78-26.6L261.78-26.6 262.08-25.65Q260.83-24.25 260.38-22.93 259.93-21.6 259.83-19.35L259.83-19.35 258.58-19.35Q258.23-21 258.23-23.35ZM274.42 0.6Q269.47 0.6 266.42-2.53 263.37-5.65 263.37-10.9 263.37-16.15 266.57-20.75 269.77-25.35 274.92-26.65L274.92-26.65Q280.07-26.65 282.77-23.73 285.47-20.8 285.47-15.4 285.47-10 282.55-5.65 279.62-1.3 274.42 0.6L274.42 0.6ZM273.57-23.6L273.57-23.6Q271.32-23.6 269.67-22.35L269.67-22.35Q267.62-18.85 267.62-13.55L267.62-13.55Q267.62-7.45 271.02-4.2L271.02-4.2Q272.82-2.45 275.27-2.45 277.72-2.45 279.22-3.75L279.22-3.75Q281.22-7.25 281.22-12.3 281.22-17.35 279.42-20.48 277.62-23.6 273.57-23.6ZM289.72-24.7L289.72-25.95 301.32-26.3Q310.37-26.3 310.37-19.75L310.37-19.75Q310.37-16.1 307.15-13.85 303.92-11.6 299.82-11.6L299.82-11.6Q299.22-11.6 298.97-11.65L298.97-11.65 299.17-13.3 299.62-13.3Q302.72-13.3 304.25-14.65 305.77-16 305.77-18.9 305.77-21.8 304.55-23.18 303.32-24.55 300.62-24.55L300.62-24.55Q298.97-24.55 297.52-24L297.52-24Q297.17-20.7 297.17-12.8 297.17-4.9 297.62-1.65L297.62-1.65Q299.72-1.4 302.02-0.85L302.02-0.85 301.87 0.4Q299.42 0 295.97 0 292.52 0 289.97 0.4L289.97 0.4 289.77-0.9Q291.27-1.4 292.92-1.65L292.92-1.65Q293.42-5.15 293.42-12.58 293.42-20 292.97-24.05L292.97-24.05Q291.22-24.7 289.72-24.7L289.72-24.7Z" opacity="1" transform="matrix(1,0,0,1,0,0)" fill="#ffffff" class="slogan-text-1" data-fill-palette-color="secondary" id="text-1"></path></svg></g></svg></g></svg></g></svg></g><g transform="matrix(1,0,0,1,45.397915698621716,0)"><svg viewBox="0 0 133.20416860275657 88.20972871340473" height="88.20972871340473" width="133.20416860275657"><g><svg xmlns="http://www.w3.org/2000/svg" xmlns:xlink="http://www.w3.org/1999/xlink" version="1.1" x="8" y="0" viewBox="10.074798390981691 70.9 491.88538910120485 370.20079787234056" style="enable-background:new 0 0 512 512;" xml:space="preserve" height="88.20972871340473" width="117.20416860275657" class="icon-icon-0" data-fill-palette-color="accent" id="icon-0"><g fill="#ffffff" data-fill-palette-color="accent"><path d="M255 152.6c19.3 0 35-15.7 35-35.1v-11.6c0-19.3-15.7-35-35-35s-35 15.7-35 35v11.6C220 136.8 235.6 152.5 255 152.6z" fill="#ffffff" data-fill-palette-color="accent"></path><path d="M501.1 262.4c-2.8-10.4-12.3-17.6-23-17.6-6.4 0-12.4 2.6-16.9 7.2-3 3.1-5.1 6.9-6.2 11H334v-32h25.1c13.3 0.1 24.1-10.6 24.2-23.9 0 0 0 0 0-0.1 0-6.7 5.4-12 12.1-12 0 0 0.1 0 0.1 0h33.7c1.1 4 3.2 7.7 6.2 10.6 9.3 9.4 24.5 9.4 33.8 0.1 9.4-9.3 9.4-24.5 0.1-33.8-9.3-9.4-24.5-9.4-33.8-0.1 0 0-0.1 0.1-0.1 0.1-3.2 2.9-5.4 6.8-6.2 11.1h-33.7c-13.3-0.1-24.1 10.6-24.2 23.9 0 0 0 0 0 0.1 0 6.7-5.4 12-12.1 12 0 0-0.1 0-0.1 0H334v-25c0.1-2.8 0-5.6-0.3-8.4 11.7-0.4 22.1-7.8 26.1-18.8l11.8-31.9c2.5-6.6 8.8-11 15.8-11h3.1c0.8 4.9 3.1 9.4 6.7 12.9 9.3 9.3 24.4 9.3 33.8 0 9.3-9.3 9.3-24.4 0-33.8-9.3-9.3-24.4-9.3-33.8 0 0 0 0 0 0 0-2.4 2.6-4.3 5.6-5.6 8.9h-4.2c-12.1 0-22.9 7.5-27.1 18.8l-11.8 32c-2.5 6.6-8.8 11.1-15.8 11.1h-3c-1.1-2.1-2.4-4.1-3.9-6-6.1-7.4-14.9-12.1-24.4-13-0.4 0-1.3 0-26.8 0h0c-2.1-0.1-4.1 1-5.2 2.8l-13.5 23.5L243 157.9c-1.1-1.9-3.1-3-5.3-2.9h-24.1c-9.6-0.1-18.8 3.7-25.6 10.5-2.5 2.5-4.7 5.4-6.4 8.5h-2.4c-7.1-0.1-13.4-4.5-15.8-11.2l-11.8-32c-4.2-11.3-15-18.8-27.1-18.9h-4.2c-1.3-3.3-3.2-6.3-5.6-8.9-9.3-9.3-24.4-9.2-33.7 0.1-9.3 9.3-9.2 24.4 0.1 33.7 9.3 9.2 24.3 9.2 33.6 0 3.5-3.5 5.9-8 6.7-12.9h3.1c7.1 0 13.4 4.4 15.8 11l11.8 31.9c4 10.8 14.1 18.2 25.6 18.8-0.2 1.7-0.4 3.4-0.4 5.1 0 0.4 0 13.2 0.1 28.2h-24.6c-6.7 0.1-12.1-5.2-12.2-11.9 0 0 0-0.1 0-0.1 0-13.3-10.8-24-24.1-24 0 0 0 0-0.1 0H82.8c-0.8-4.3-3-8.2-6.2-11.1-9.3-9.3-24.4-9.4-33.7-0.1-9.3 9.3-9.3 24.3-0.1 33.6 0 0 0 0 0.1 0.1 4.5 4.5 10.7 7 17.1 7 6.4-0.1 12.5-2.6 17.1-7v0.2c2.9-3 4.9-6.6 5.8-10.6h33.7c6.7-0.1 12.1 5.2 12.2 11.9 0 0 0 0.1 0 0.1 0 13.3 10.8 24 24.1 24 0 0 0 0 0.1 0h24.6c0 13 0.1 26 0.1 32H56.9c-1.1-4.2-3.2-8-6.2-11-9.3-9.3-24.3-9.4-33.6-0.1s-9.4 24.3-0.1 33.6c4.5 4.5 10.6 7 16.9 7 10.8 0.1 20.3-7.1 23.1-17.5h122.9c1.1 2.1 2.6 4.1 4.3 5.8 4.1 4.1 9.8 6.3 15.6 6.2h0.3c3.6-0.1 7.2-1.1 10.3-2.9l0.7 21.9h-57.9c-13.4 0.2-24.2 11.1-24.2 24.5 0 6.8-5.4 12.3-12.2 12.5H82.8c-1.1-4.1-3.2-7.9-6.2-11-9.3-9.3-24.4-9.3-33.7-0.1-9.3 9.3-9.3 24.5 0 33.8 9.3 9.3 24.5 9.3 33.8 0 3-3 5.1-6.6 6.2-10.7h33.7c13.4-0.2 24.2-11.1 24.2-24.5 0-6.8 5.4-12.3 12.2-12.5h58.3l1 34h-32.9c-12-0.1-22.9 7.4-27.1 18.6l-11.8 31.6c-2.5 6.5-8.8 10.8-15.8 10.7h-3.1c-1-4.8-3.3-9.2-6.7-12.7-9.3-9.5-24.5-9.6-34-0.3s-9.6 24.5-0.3 34c9.3 9.5 24.5 9.6 34 0.3 0.1-0.1 0.2-0.2 0.3-0.3 2.7-2.4 4.6-5.6 5.6-9h4.2c12 0.1 22.9-7.4 27.1-18.7l11.8-31.6c2.5-6.5 8.8-10.8 15.8-10.7h33.2l1.6 53.1c0 0.1 0 0.3 0 0.4 0.7 7.7 7.2 13.6 15 13.5h53.6c7.8 0 14.3-5.9 15-13.7 0-0.1 0-0.2 0-0.2l1.5-53.1h33.5c7-0.1 13.4 4.2 15.8 10.8l11.8 31.6c4.3 11.2 15.1 18.6 27.1 18.6h4.2c1 3.5 2.9 6.6 5.6 9 9.2 9.4 24.3 9.4 33.7 0.2 0 0 0 0 0.1-0.1 9.3-9.3 9.3-24.4 0-33.7 0 0 0 0 0 0-9.3-9.4-24.4-9.4-33.7-0.2-3.4 3.5-5.7 8-6.7 12.7h-3.1c-7 0.1-13.3-4.3-15.8-10.8l-11.8-31.6c-4.3-11.2-15.1-18.6-27.1-18.5h-33.2l0.9-34h58.6c6.8 0.2 12.2 5.7 12.2 12.5 0 13.4 10.8 24.3 24.2 24.5h33.7c3.3 12.7 16.4 20.4 29.1 17 12.7-3.3 20.4-16.4 17-29.1-1.1-4.2-3.3-8-6.4-11-9.3-9.3-23.9-9.3-33.9 0v0.1c-2.9 3.1-4.9 6.9-5.8 11h-33.7c-6.8-0.2-12.2-5.7-12.2-12.5 0-13.4-10.8-24.3-24.2-24.5h-58.3l0.6-21.6c3.2 1.8 6.7 2.8 10.3 2.8 8.4-0.1 16-4.8 19.9-12.2H455c3.5 12.7 16.6 20.2 29.4 16.7C497.1 288.2 504.6 275.1 501.1 262.4z" fill="#ffffff" data-fill-palette-color="accent"></path></g></svg></g></svg></g><g><rect width="45.397915698621716" height="3.4001873360794326" y="83.8095413773253" x="178.60208430137828" fill="#ffffff" data-fill-palette-color="accent"></rect><rect width="45.397915698621716" height="3.4001873360794326" y="83.8095413773253" x="0" fill="#ffffff" data-fill-palette-color="accent"></rect><rect width="45.397915698621716" height="3.4001873360794326" y="77.00916670516644" x="178.60208430137828" fill="#ffffff" data-fill-palette-color="accent"></rect><rect width="45.397915698621716" height="3.4001873360794326" y="77.00916670516644" x="0" fill="#ffffff" data-fill-palette-color="accent"></rect></g></svg></g></svg></g></svg></g><defs></defs></svg><rect width="320" height="360" fill="none" stroke="none" visibility="hidden"></rect></g></svg></g></svg>